<svg xmlns="http://www.w3.org/2000/svg" xmlns:xlink="http://www.w3.org/1999/xlink" width="1920" zoomAndPan="magnify" viewBox="0 0 1440 809.999993" height="1080" preserveAspectRatio="xMidYMid meet" version="1.0"><defs><clipPath id="856f536172"><path d="M 196.945312 349 L 542 349 L 542 758 L 196.945312 758 Z M 196.945312 349 " clip-rule="nonzero"/></clipPath><clipPath id="39fa7d599a"><path d="M 237 357 L 582 357 L 582 765.414062 L 237 765.414062 Z M 237 357 " clip-rule="nonzero"/></clipPath><clipPath id="d41fac814e"><path d="M 940 248 L 1282.945312 248 L 1282.945312 655 L 940 655 Z M 940 248 " clip-rule="nonzero"/></clipPath></defs><g clip-path="url(#856f536172)"><path fill="#2a2550" d="M 196.945312 664.050781 L 208.378906 563.136719 L 397.1875 349.730469 L 527.550781 364.496094 L 501.726562 592.5 L 541.003906 596.949219 L 529.132812 701.707031 L 489.859375 697.203125 L 483.101562 757.230469 L 360.878906 743.394531 L 367.675781 683.394531 Z M 399.554688 489.792969 L 330.449219 573.101562 L 389.359375 579.785156 Z M 399.554688 489.792969 " fill-opacity="1" fill-rule="nonzero"/></g><g clip-path="url(#39fa7d599a)"><path fill="#9694cc" d="M 237.023438 672.058594 L 248.421875 571.144531 L 437.234375 357.738281 L 567.601562 372.503906 L 541.769531 600.511719 L 581.042969 604.957031 L 569.183594 709.71875 L 529.90625 705.265625 L 523.109375 765.269531 L 400.925781 751.402344 L 407.726562 691.402344 Z M 439.597656 497.777344 L 370.496094 581.109375 L 429.402344 587.78125 Z M 439.597656 497.777344 " fill-opacity="1" fill-rule="nonzero"/></g><g clip-path="url(#d41fac814e)"><path fill="#2a2550" d="M 950.867188 612.734375 L 940.003906 511.753906 L 1077.695312 262.292969 L 1208.148438 248.230469 L 1232.691406 476.433594 L 1271.988281 472.214844 L 1283.238281 576.972656 L 1243.933594 581.191406 L 1250.394531 641.234375 L 1128.136719 654.382812 L 1121.675781 594.347656 Z M 1110.566406 398.445312 L 1061.308594 494.847656 L 1120.253906 488.519531 Z M 1110.566406 398.445312 " fill-opacity="1" fill-rule="nonzero"/></g><path fill="#9694cc" d="M 936.082031 634.910156 L 925.21875 533.9375 L 1062.910156 284.488281 L 1193.363281 270.429688 L 1217.90625 498.574219 L 1257.203125 494.355469 L 1268.453125 599.113281 L 1229.148438 603.332031 L 1235.609375 663.371094 L 1113.351562 676.523438 L 1106.890625 616.480469 Z M 1095.78125 420.621094 L 1046.523438 517.023438 L 1105.46875 510.695312 Z M 1095.78125 420.621094 " fill-opacity="1" fill-rule="nonzero"/><path fill="#2a2550" d="M 653.039062 111.445312 C 708.203125 44.738281 860.878906 61.886719 899.832031 139.652344 C 946.289062 211.8125 927.398438 376.59375 866.214844 436.355469 C 810.777344 503.507812 658.101562 486.078125 619.433594 408.394531 C 573.449219 336.664062 592.082031 171.03125 653.039062 111.445312 Z M 802.683594 212.070312 C 798.527344 196.683594 787.542969 187.980469 769.730469 185.964844 C 751.542969 183.902344 738.710938 189.910156 731.230469 203.980469 C 716.597656 228.585938 707.613281 308.976562 716.273438 335.976562 C 721.898438 366.308594 775.335938 372.769531 787.730469 344.078125 C 802.207031 319.722656 811.445312 239.34375 802.683594 212.070312 Z M 802.683594 212.070312 " fill-opacity="1" fill-rule="nonzero"/><path fill="#9694cc" d="M 682.613281 111.445312 C 737.777344 44.738281 890.449219 61.886719 929.402344 139.652344 C 975.863281 211.8125 956.96875 376.59375 895.789062 436.355469 C 840.347656 503.507812 687.671875 486.078125 648.96875 408.394531 C 603.023438 336.664062 621.648438 171.03125 682.613281 111.445312 Z M 832.257812 212.070312 C 828.105469 196.683594 817.117188 187.980469 799.304688 185.964844 C 781.113281 183.902344 768.277344 189.910156 760.800781 203.980469 C 746.171875 228.585938 737.183594 308.976562 745.847656 335.976562 C 751.472656 366.308594 804.90625 372.769531 817.300781 344.070312 C 831.777344 319.722656 840.976562 239.34375 832.257812 212.070312 Z M 832.257812 212.070312 " fill-opacity="1" fill-rule="nonzero"/></svg>